<?xml version="1.0" encoding="UTF-8" standalone="no"?>
<!DOCTYPE svg PUBLIC "-//W3C//DTD SVG 1.1//EN"
 "http://www.w3.org/Graphics/SVG/1.1/DTD/svg11.dtd">
<!-- Generated by graphviz version 2.40.1 (20161225.0304)
 -->
<!-- Title: identity_server_resource_owner_flow Pages: 1 -->
<svg width="427pt" height="161pt"
 viewBox="0.00 0.00 426.77 161.00" xmlns="http://www.w3.org/2000/svg" xmlns:xlink="http://www.w3.org/1999/xlink">
<g id="graph0" class="graph" transform="scale(1 1) rotate(0) translate(4 157)">
<title>identity_server_resource_owner_flow</title>
<polygon fill="#ffffff" stroke="transparent" points="-4,4 -4,-157 422.7707,-157 422.7707,4 -4,4"/>
<!-- client -->
<g id="node1" class="node">
<title>client</title>
<path fill="#f0ffff" stroke="#000000" d="M183.2707,-153C183.2707,-153 50.2707,-153 50.2707,-153 44.2707,-153 38.2707,-147 38.2707,-141 38.2707,-141 38.2707,-129 38.2707,-129 38.2707,-123 44.2707,-117 50.2707,-117 50.2707,-117 183.2707,-117 183.2707,-117 189.2707,-117 195.2707,-123 195.2707,-129 195.2707,-129 195.2707,-141 195.2707,-141 195.2707,-147 189.2707,-153 183.2707,-153"/>
<text text-anchor="middle" x="116.7707" y="-131.3" font-family="Times,serif" font-size="14.00" fill="#000000">Application (Client)</text>
</g>
<!-- authorization_service -->
<g id="node2" class="node">
<title>authorization_service</title>
<path fill="#f0ffff" stroke="#000000" d="M186.7707,-36C186.7707,-36 46.7707,-36 46.7707,-36 40.7707,-36 34.7707,-30 34.7707,-24 34.7707,-24 34.7707,-12 34.7707,-12 34.7707,-6 40.7707,0 46.7707,0 46.7707,0 186.7707,0 186.7707,0 192.7707,0 198.7707,-6 198.7707,-12 198.7707,-12 198.7707,-24 198.7707,-24 198.7707,-30 192.7707,-36 186.7707,-36"/>
<text text-anchor="middle" x="116.7707" y="-14.3" font-family="Times,serif" font-size="14.00" fill="#000000">Autorization Service</text>
</g>
<!-- client&#45;&gt;authorization_service -->
<g id="edge1" class="edge">
<title>client&#45;&gt;authorization_service</title>
<path fill="none" stroke="#0000ff" d="M41.7592,-116.9203C26.4485,-111.7037 13.5376,-105.6139 8.7707,-99 -2.9236,-82.7752 -2.9236,-70.2248 8.7707,-54 12.4949,-48.8329 21.1897,-43.9857 32.1162,-39.6248"/>
<polygon fill="#0000ff" stroke="#0000ff" points="33.5811,-42.8154 41.7592,-36.0797 31.1657,-36.2453 33.5811,-42.8154"/>
<text text-anchor="middle" x="106.7707" y="-87.8" font-family="Times,serif" font-size="14.00" fill="#0000ff">01</text>
<text text-anchor="middle" x="106.7707" y="-72.8" font-family="Times,serif" font-size="14.00" fill="#0000ff">Authentication Request</text>
<text text-anchor="middle" x="106.7707" y="-57.8" font-family="Times,serif" font-size="14.00" fill="#0000ff">Inform client_id and secret</text>
</g>
<!-- authorization_service&#45;&gt;client -->
<g id="edge2" class="edge">
<title>authorization_service&#45;&gt;client</title>
<path fill="none" stroke="#0000ff" stroke-dasharray="1,5" d="M185.3957,-36.0471C193.0144,-40.7192 199.8023,-46.5994 204.7707,-54 215.9185,-70.605 215.9185,-82.395 204.7707,-99 201.6654,-103.6254 197.8494,-107.6568 193.5641,-111.1706"/>
<polygon fill="#0000ff" stroke="#0000ff" points="191.5355,-108.3184 185.3957,-116.9529 195.5799,-114.0318 191.5355,-108.3184"/>
<text text-anchor="middle" x="315.7707" y="-87.8" font-family="Times,serif" font-size="14.00" fill="#0000ff">02</text>
<text text-anchor="middle" x="315.7707" y="-72.8" font-family="Times,serif" font-size="14.00" fill="#0000ff">Access Token</text>
<text text-anchor="middle" x="315.7707" y="-57.8" font-family="Times,serif" font-size="14.00" fill="#0000ff">(after authorization consent)</text>
</g>
</g>
</svg>
