<?xml version="1.0" encoding="UTF-8" standalone="no"?>
<!DOCTYPE svg PUBLIC "-//W3C//DTD SVG 1.1//EN"
 "http://www.w3.org/Graphics/SVG/1.1/DTD/svg11.dtd">
<!-- Generated by graphviz version 2.40.1 (20161225.0304)
 -->
<!-- Title: identity_server_resource_owner_flow Pages: 1 -->
<svg width="465pt" height="176pt"
 viewBox="0.00 0.00 465.01 176.00" xmlns="http://www.w3.org/2000/svg" xmlns:xlink="http://www.w3.org/1999/xlink">
<g id="graph0" class="graph" transform="scale(1 1) rotate(0) translate(4 172)">
<title>identity_server_resource_owner_flow</title>
<polygon fill="#ffffff" stroke="transparent" points="-4,4 -4,-172 461.0099,-172 461.0099,4 -4,4"/>
<!-- client -->
<g id="node1" class="node">
<title>client</title>
<path fill="#f0ffff" stroke="#000000" d="M202.5099,-168C202.5099,-168 69.5099,-168 69.5099,-168 63.5099,-168 57.5099,-162 57.5099,-156 57.5099,-156 57.5099,-144 57.5099,-144 57.5099,-138 63.5099,-132 69.5099,-132 69.5099,-132 202.5099,-132 202.5099,-132 208.5099,-132 214.5099,-138 214.5099,-144 214.5099,-144 214.5099,-156 214.5099,-156 214.5099,-162 208.5099,-168 202.5099,-168"/>
<text text-anchor="middle" x="136.0099" y="-146.3" font-family="Times,serif" font-size="14.00" fill="#000000">Application (Client)</text>
</g>
<!-- authorization_service -->
<g id="node2" class="node">
<title>authorization_service</title>
<path fill="#f0ffff" stroke="#000000" d="M206.0099,-36C206.0099,-36 66.0099,-36 66.0099,-36 60.0099,-36 54.0099,-30 54.0099,-24 54.0099,-24 54.0099,-12 54.0099,-12 54.0099,-6 60.0099,0 66.0099,0 66.0099,0 206.0099,0 206.0099,0 212.0099,0 218.0099,-6 218.0099,-12 218.0099,-12 218.0099,-24 218.0099,-24 218.0099,-30 212.0099,-36 206.0099,-36"/>
<text text-anchor="middle" x="136.0099" y="-14.3" font-family="Times,serif" font-size="14.00" fill="#000000">Autorization Service</text>
</g>
<!-- client&#45;&gt;authorization_service -->
<g id="edge1" class="edge">
<title>client&#45;&gt;authorization_service</title>
<path fill="none" stroke="#0000ff" d="M57.4884,-135.1179C36.7357,-129.5163 18.3366,-122.4248 12.0099,-114 -4.0033,-92.6766 -4.0033,-75.3234 12.0099,-54 16.9427,-47.4315 29.214,-41.6733 44.2178,-36.8"/>
<polygon fill="#0000ff" stroke="#0000ff" points="45.313,-40.1254 53.8718,-33.8806 43.2867,-33.4251 45.313,-40.1254"/>
<text text-anchor="middle" x="126.0099" y="-95.3" font-family="Times,serif" font-size="14.00" fill="#0000ff">01</text>
<text text-anchor="middle" x="126.0099" y="-80.3" font-family="Times,serif" font-size="14.00" fill="#0000ff">Authentication Request</text>
<text text-anchor="middle" x="126.0099" y="-65.3" font-family="Times,serif" font-size="14.00" fill="#0000ff">Inform username and password</text>
</g>
<!-- authorization_service&#45;&gt;client -->
<g id="edge2" class="edge">
<title>authorization_service&#45;&gt;client</title>
<path fill="none" stroke="#0000ff" stroke-dasharray="1,5" d="M207.4627,-36.0631C222.5579,-41.34 235.3552,-47.4631 240.0099,-54 255.4776,-75.7224 255.4776,-92.2776 240.0099,-114 236.3734,-119.107 227.7671,-123.9613 216.9779,-128.357"/>
<polygon fill="#0000ff" stroke="#0000ff" points="215.5897,-125.1397 207.4627,-131.9369 218.0547,-131.6913 215.5897,-125.1397"/>
<text text-anchor="middle" x="354.0099" y="-102.8" font-family="Times,serif" font-size="14.00" fill="#0000ff">02</text>
<text text-anchor="middle" x="354.0099" y="-87.8" font-family="Times,serif" font-size="14.00" fill="#0000ff">Access Token</text>
<text text-anchor="middle" x="354.0099" y="-72.8" font-family="Times,serif" font-size="14.00" fill="#0000ff">Reflesh Token</text>
<text text-anchor="middle" x="354.0099" y="-57.8" font-family="Times,serif" font-size="14.00" fill="#0000ff">(after authorization consent)</text>
</g>
</g>
</svg>
