<?xml version="1.0" encoding="UTF-8" standalone="no"?>
<!DOCTYPE svg PUBLIC "-//W3C//DTD SVG 1.1//EN"
 "http://www.w3.org/Graphics/SVG/1.1/DTD/svg11.dtd">
<!-- Generated by graphviz version 2.40.1 (20161225.0304)
 -->
<!-- Title: identity_server_implicit_flow Pages: 1 -->
<svg width="416pt" height="206pt"
 viewBox="0.00 0.00 416.05 206.00" xmlns="http://www.w3.org/2000/svg" xmlns:xlink="http://www.w3.org/1999/xlink">
<g id="graph0" class="graph" transform="scale(1 1) rotate(0) translate(4 202)">
<title>identity_server_implicit_flow</title>
<polygon fill="#ffffff" stroke="transparent" points="-4,4 -4,-202 412.0452,-202 412.0452,4 -4,4"/>
<!-- client -->
<g id="node1" class="node">
<title>client</title>
<path fill="#f0ffff" stroke="#000000" d="M178.5452,-198C178.5452,-198 45.5452,-198 45.5452,-198 39.5452,-198 33.5452,-192 33.5452,-186 33.5452,-186 33.5452,-174 33.5452,-174 33.5452,-168 39.5452,-162 45.5452,-162 45.5452,-162 178.5452,-162 178.5452,-162 184.5452,-162 190.5452,-168 190.5452,-174 190.5452,-174 190.5452,-186 190.5452,-186 190.5452,-192 184.5452,-198 178.5452,-198"/>
<text text-anchor="middle" x="112.0452" y="-176.3" font-family="Times,serif" font-size="14.00" fill="#000000">Application (Client)</text>
</g>
<!-- authorization_service -->
<g id="node2" class="node">
<title>authorization_service</title>
<path fill="#f0ffff" stroke="#000000" d="M182.0452,-36C182.0452,-36 42.0452,-36 42.0452,-36 36.0452,-36 30.0452,-30 30.0452,-24 30.0452,-24 30.0452,-12 30.0452,-12 30.0452,-6 36.0452,0 42.0452,0 42.0452,0 182.0452,0 182.0452,0 188.0452,0 194.0452,-6 194.0452,-12 194.0452,-12 194.0452,-24 194.0452,-24 194.0452,-30 188.0452,-36 182.0452,-36"/>
<text text-anchor="middle" x="112.0452" y="-14.3" font-family="Times,serif" font-size="14.00" fill="#000000">Autorization Service</text>
</g>
<!-- client&#45;&gt;authorization_service -->
<g id="edge1" class="edge">
<title>client&#45;&gt;authorization_service</title>
<path fill="none" stroke="#0000ff" d="M48.2028,-161.9019C33.7726,-156.4937 21.4044,-150.3136 17.0452,-144 -5.6817,-111.0837 -5.6817,-86.9163 17.0452,-54 20.4168,-49.1168 28.5794,-44.3135 38.7815,-39.8854"/>
<polygon fill="#0000ff" stroke="#0000ff" points="40.2299,-43.0754 48.2028,-36.0981 37.6189,-36.5806 40.2299,-43.0754"/>
<text text-anchor="middle" x="102.0452" y="-110.3" font-family="Times,serif" font-size="14.00" fill="#0000ff">01</text>
<text text-anchor="middle" x="102.0452" y="-95.3" font-family="Times,serif" font-size="14.00" fill="#0000ff">Authentication Request</text>
<text text-anchor="middle" x="102.0452" y="-80.3" font-family="Times,serif" font-size="14.00" fill="#0000ff">Inform redirect_uri</text>
</g>
<!-- authorization_service&#45;&gt;client -->
<g id="edge2" class="edge">
<title>authorization_service&#45;&gt;client</title>
<path fill="none" stroke="#0000ff" stroke-dasharray="1,5" d="M168.5007,-36.096C175.8583,-40.7912 182.43,-46.6653 187.0452,-54 208.3481,-87.8554 208.3481,-110.1446 187.0452,-144 184.2328,-148.4696 180.6939,-152.3968 176.6933,-155.8453"/>
<polygon fill="#0000ff" stroke="#0000ff" points="174.4599,-153.1439 168.5007,-161.904 178.6221,-158.7721 174.4599,-153.1439"/>
<text text-anchor="middle" x="305.0452" y="-132.8" font-family="Times,serif" font-size="14.00" fill="#0000ff">02</text>
<text text-anchor="middle" x="305.0452" y="-117.8" font-family="Times,serif" font-size="14.00" fill="#0000ff">Idendity Token</text>
<text text-anchor="middle" x="305.0452" y="-102.8" font-family="Times,serif" font-size="14.00" fill="#0000ff">Access Token (Optional)</text>
<text text-anchor="middle" x="305.0452" y="-87.8" font-family="Times,serif" font-size="14.00" fill="#0000ff">as query parameters</text>
<text text-anchor="middle" x="305.0452" y="-72.8" font-family="Times,serif" font-size="14.00" fill="#0000ff">to the redirect_uri</text>
<text text-anchor="middle" x="305.0452" y="-57.8" font-family="Times,serif" font-size="14.00" fill="#0000ff">(after authorization consent)</text>
</g>
</g>
</svg>
